<svg width="17" height="15" viewBox="0 0 17 15" fill="none" xmlns="http://www.w3.org/2000/svg">
<path d="M10.0833 4.33341V2.75008C10.0833 2.33016 9.91652 1.92743 9.61959 1.6305C9.32265 1.33356 8.91993 1.16675 8.5 1.16675H2.95833C2.53841 1.16675 2.13568 1.33356 1.83875 1.6305C1.54181 1.92743 1.375 2.33016 1.375 2.75008V12.2501C1.375 12.67 1.54181 13.0727 1.83875 13.3697C2.13568 13.6666 2.53841 13.8334 2.95833 13.8334H8.5C8.91993 13.8334 9.32265 13.6666 9.61959 13.3697C9.91652 13.0727 10.0833 12.67 10.0833 12.2501V10.6667" stroke="#BF0202" stroke-width="1.5" stroke-linecap="round" stroke-linejoin="round"/>
<path d="M4.54175 7.5H15.6251M15.6251 7.5L13.2501 5.125M15.6251 7.5L13.2501 9.875" stroke="#BF0202" stroke-width="1.5" stroke-linecap="round" stroke-linejoin="round"/>
</svg>
