<svg width="21" height="23" viewBox="0 0 21 23" fill="none" xmlns="http://www.w3.org/2000/svg">
<path d="M8.45367 3.39288C8.45367 2.78272 8.69884 2.19756 9.13525 1.76611C9.57167 1.33467 10.1636 1.09229 10.7808 1.09229C11.3979 1.09229 11.9898 1.33467 12.4262 1.76611C12.8627 2.19756 13.1078 2.78272 13.1078 3.39288C14.4441 4.01752 15.5832 4.98987 16.403 6.2057C17.2229 7.42153 17.6927 8.83502 17.762 10.2947V13.7456C17.8496 14.4607 18.1058 15.1455 18.5099 15.7449C18.9141 16.3443 19.455 16.8415 20.0891 17.1964H1.47241C2.10647 16.8415 2.64737 16.3443 3.05156 15.7449C3.45575 15.1455 3.71193 14.4607 3.7995 13.7456V10.2947C3.8688 8.83502 4.33857 7.42153 5.15846 6.2057C5.97834 4.98987 7.11744 4.01752 8.45367 3.39288" stroke="#211F1F" stroke-width="1.5" stroke-linecap="round" stroke-linejoin="round"/>
<path d="M7.28955 17.1963V18.3466C7.28955 19.2618 7.65731 20.1396 8.31193 20.7867C8.96655 21.4339 9.85441 21.7975 10.7802 21.7975C11.7059 21.7975 12.5938 21.4339 13.2484 20.7867C13.903 20.1396 14.2708 19.2618 14.2708 18.3466V17.1963" stroke="#211F1F" stroke-width="1.5" stroke-linecap="round" stroke-linejoin="round"/>
</svg>
