<svg width="43" height="43" viewBox="0 0 43 43" fill="none" xmlns="http://www.w3.org/2000/svg">
<path d="M21.5 39.875C31.6482 39.875 39.875 31.6482 39.875 21.5C39.875 11.3518 31.6482 3.125 21.5 3.125C11.3518 3.125 3.125 11.3518 3.125 21.5C3.125 31.6482 11.3518 39.875 21.5 39.875Z" stroke="#19A752" stroke-width="5" stroke-linecap="round" stroke-linejoin="round"/>
<path d="M21.5 23.5417C24.8827 23.5417 27.625 20.7995 27.625 17.4167C27.625 14.034 24.8827 11.2917 21.5 11.2917C18.1173 11.2917 15.375 14.034 15.375 17.4167C15.375 20.7995 18.1173 23.5417 21.5 23.5417Z" stroke="#19A752" stroke-width="5" stroke-linecap="round" stroke-linejoin="round"/>
<path d="M9.59302 35.4835C10.0983 33.8016 11.1324 32.3274 12.5417 31.2796C13.951 30.2318 15.6605 29.6662 17.4167 29.6667H25.5834C27.3418 29.6661 29.0534 30.2331 30.4637 31.2833C31.8741 32.3335 32.9078 33.8109 33.4111 35.4957" stroke="#19A752" stroke-width="5" stroke-linecap="round" stroke-linejoin="round"/>
</svg>
